<?xml version="1.0" encoding="UTF-8" standalone="no"?>
<!DOCTYPE svg PUBLIC "-//W3C//DTD SVG 1.1//EN"
 "http://www.w3.org/Graphics/SVG/1.1/DTD/svg11.dtd">
<!-- Generated by graphviz version 2.43.0 (0)
 -->
<!-- Title: dependency&#45;cruiser output Pages: 1 -->
<svg width="1049pt" height="238pt"
 viewBox="0.00 0.00 1049.00 238.00" xmlns="http://www.w3.org/2000/svg" xmlns:xlink="http://www.w3.org/1999/xlink">
<g id="graph0" class="graph" transform="scale(1 1) rotate(0) translate(4 234)">
<title>dependency&#45;cruiser output</title>
<polygon fill="white" stroke="transparent" points="-4,4 -4,-234 1045,-234 1045,4 -4,4"/>
<g id="clust1" class="cluster">
<title>cluster_packages</title>
<path fill="#ffffff" stroke="black" stroke-width="2" d="M20,-8C20,-8 1021,-8 1021,-8 1027,-8 1033,-14 1033,-20 1033,-20 1033,-210 1033,-210 1033,-216 1027,-222 1021,-222 1021,-222 20,-222 20,-222 14,-222 8,-216 8,-210 8,-210 8,-20 8,-20 8,-14 14,-8 20,-8"/>
<text text-anchor="middle" x="520.5" y="-210.8" font-family="Helvetica,sans-Serif" font-weight="bold" font-size="9.00">packages</text>
</g>
<g id="clust2" class="cluster">
<title>cluster_packages/base</title>
<path fill="#ffffff" stroke="black" stroke-width="2" d="M28,-16C28,-16 1013,-16 1013,-16 1019,-16 1025,-22 1025,-28 1025,-28 1025,-184 1025,-184 1025,-190 1019,-196 1013,-196 1013,-196 28,-196 28,-196 22,-196 16,-190 16,-184 16,-184 16,-28 16,-28 16,-22 22,-16 28,-16"/>
<text text-anchor="middle" x="520.5" y="-184.8" font-family="Helvetica,sans-Serif" font-weight="bold" font-size="9.00">base</text>
</g>
<g id="clust3" class="cluster">
<title>cluster_packages/base/src</title>
<path fill="#ffffff" stroke="black" stroke-width="2" d="M36,-24C36,-24 1005,-24 1005,-24 1011,-24 1017,-30 1017,-36 1017,-36 1017,-158 1017,-158 1017,-164 1011,-170 1005,-170 1005,-170 36,-170 36,-170 30,-170 24,-164 24,-158 24,-158 24,-36 24,-36 24,-30 30,-24 36,-24"/>
<text text-anchor="middle" x="520.5" y="-158.8" font-family="Helvetica,sans-Serif" font-weight="bold" font-size="9.00">src</text>
</g>
<g id="clust4" class="cluster">
<title>cluster_packages/base/src/signals</title>
<path fill="#ffffff" stroke="black" stroke-width="2" d="M404,-32C404,-32 825,-32 825,-32 831,-32 837,-38 837,-44 837,-44 837,-132 837,-132 837,-138 831,-144 825,-144 825,-144 404,-144 404,-144 398,-144 392,-138 392,-132 392,-132 392,-44 392,-44 392,-38 398,-32 404,-32"/>
<text text-anchor="middle" x="614.5" y="-132.8" font-family="Helvetica,sans-Serif" font-weight="bold" font-size="9.00">signals</text>
</g>
<g id="clust5" class="cluster">
<title>cluster_packages/base/src/utils</title>
<path fill="#ffffff" stroke="black" stroke-width="2" d="M857,-32C857,-32 997,-32 997,-32 1003,-32 1009,-38 1009,-44 1009,-44 1009,-132 1009,-132 1009,-138 1003,-144 997,-144 997,-144 857,-144 857,-144 851,-144 845,-138 845,-132 845,-132 845,-44 845,-44 845,-38 851,-32 857,-32"/>
<text text-anchor="middle" x="927" y="-132.8" font-family="Helvetica,sans-Serif" font-weight="bold" font-size="9.00">utils</text>
</g>
<!-- packages/base/src/experiment&#45;manager.ts -->
<g id="node1" class="node">
<title>packages/base/src/experiment&#45;manager.ts</title>
<g id="a_node1"><a xlink:href="packages/base/src/experiment-manager.ts" xlink:title="experiment&#45;manager.ts">
<path fill="#ddfeff" stroke="black" d="M271,-68C271,-68 161,-68 161,-68 158,-68 155,-65 155,-62 155,-62 155,-56 155,-56 155,-53 158,-50 161,-50 161,-50 271,-50 271,-50 274,-50 277,-53 277,-56 277,-56 277,-62 277,-62 277,-65 274,-68 271,-68"/>
<text text-anchor="start" x="163" y="-56.8" font-family="Helvetica,sans-Serif" font-size="9.00">experiment&#45;manager.ts</text>
</a>
</g>
</g>
<!-- packages/base/src/signals/signal&#45;manager.ts -->
<g id="node2" class="node">
<title>packages/base/src/signals/signal&#45;manager.ts</title>
<g id="a_node2"><a xlink:href="packages/base/src/signals/signal-manager.ts" xlink:title="signal&#45;manager.ts">
<path fill="#ddfeff" stroke="black" d="M547.5,-88C547.5,-88 462.5,-88 462.5,-88 459.5,-88 456.5,-85 456.5,-82 456.5,-82 456.5,-76 456.5,-76 456.5,-73 459.5,-70 462.5,-70 462.5,-70 547.5,-70 547.5,-70 550.5,-70 553.5,-73 553.5,-76 553.5,-76 553.5,-82 553.5,-82 553.5,-85 550.5,-88 547.5,-88"/>
<text text-anchor="start" x="464.5" y="-76.8" font-family="Helvetica,sans-Serif" font-size="9.00">signal&#45;manager.ts</text>
</a>
</g>
</g>
<!-- packages/base/src/experiment&#45;manager.ts&#45;&gt;packages/base/src/signals/signal&#45;manager.ts -->
<g id="edge1" class="edge">
<title>packages/base/src/experiment&#45;manager.ts&#45;&gt;packages/base/src/signals/signal&#45;manager.ts</title>
<path fill="none" stroke="#000000" stroke-width="2" stroke-opacity="0.200000" d="M277.35,-60.57C309.11,-61.64 348.7,-63.35 384,-66 405.78,-67.63 429.71,-70.09 450.43,-72.43"/>
<polygon fill="#000000" fill-opacity="0.200000" stroke="#000000" stroke-width="2" stroke-opacity="0.200000" points="450.27,-74.53 456.47,-73.12 450.75,-70.35 450.27,-74.53"/>
</g>
<!-- packages/base/src/trace&#45;manager.ts -->
<g id="node3" class="node">
<title>packages/base/src/trace&#45;manager.ts</title>
<g id="a_node3"><a xlink:href="packages/base/src/trace-manager.ts" xlink:title="trace&#45;manager.ts">
<path fill="#ddfeff" stroke="black" d="M378,-90C378,-90 296,-90 296,-90 293,-90 290,-87 290,-84 290,-84 290,-78 290,-78 290,-75 293,-72 296,-72 296,-72 378,-72 378,-72 381,-72 384,-75 384,-78 384,-78 384,-84 384,-84 384,-87 381,-90 378,-90"/>
<text text-anchor="start" x="298" y="-78.8" font-family="Helvetica,sans-Serif" font-size="9.00">trace&#45;manager.ts</text>
</a>
</g>
</g>
<!-- packages/base/src/experiment&#45;manager.ts&#45;&gt;packages/base/src/trace&#45;manager.ts -->
<g id="edge2" class="edge">
<title>packages/base/src/experiment&#45;manager.ts&#45;&gt;packages/base/src/trace&#45;manager.ts</title>
<path fill="none" stroke="#000000" stroke-width="2" stroke-opacity="0.200000" d="M265.75,-68.01C271.71,-69.12 277.83,-70.25 283.85,-71.36"/>
<polygon fill="#000000" fill-opacity="0.200000" stroke="#000000" stroke-width="2" stroke-opacity="0.200000" points="283.54,-73.44 289.82,-72.46 284.31,-69.31 283.54,-73.44"/>
</g>
<!-- packages/base/src/signals/opened&#45;traces&#45;updated&#45;signal&#45;payload.tsx -->
<g id="node7" class="node">
<title>packages/base/src/signals/opened&#45;traces&#45;updated&#45;signal&#45;payload.tsx</title>
<g id="a_node7"><a xlink:href="packages/base/src/signals/opened-traces-updated-signal-payload.tsx" xlink:title="opened&#45;traces&#45;updated&#45;signal&#45;payload.tsx">
<path fill="#bbfeff" stroke="black" d="M823,-58C823,-58 629,-58 629,-58 626,-58 623,-55 623,-52 623,-52 623,-46 623,-46 623,-43 626,-40 629,-40 629,-40 823,-40 823,-40 826,-40 829,-43 829,-46 829,-46 829,-52 829,-52 829,-55 826,-58 823,-58"/>
<text text-anchor="start" x="631" y="-46.8" font-family="Helvetica,sans-Serif" font-size="9.00">opened&#45;traces&#45;updated&#45;signal&#45;payload.tsx</text>
</a>
</g>
</g>
<!-- packages/base/src/signals/signal&#45;manager.ts&#45;&gt;packages/base/src/signals/opened&#45;traces&#45;updated&#45;signal&#45;payload.tsx -->
<g id="edge3" class="edge">
<title>packages/base/src/signals/signal&#45;manager.ts&#45;&gt;packages/base/src/signals/opened&#45;traces&#45;updated&#45;signal&#45;payload.tsx</title>
<path fill="none" stroke="#000000" stroke-width="2" stroke-opacity="0.200000" d="M553.52,-72.49C582.65,-68.5 620.51,-63.31 653.25,-58.83"/>
<polygon fill="#000000" fill-opacity="0.200000" stroke="#000000" stroke-width="2" stroke-opacity="0.200000" points="653.64,-60.9 659.3,-58 653.07,-56.73 653.64,-60.9"/>
</g>
<!-- packages/base/src/signals/output&#45;added&#45;signal&#45;payload.tsx -->
<g id="node8" class="node">
<title>packages/base/src/signals/output&#45;added&#45;signal&#45;payload.tsx</title>
<g id="a_node8"><a xlink:href="packages/base/src/signals/output-added-signal-payload.tsx" xlink:title="output&#45;added&#45;signal&#45;payload.tsx">
<path fill="#bbfeff" stroke="black" d="M801.5,-88C801.5,-88 650.5,-88 650.5,-88 647.5,-88 644.5,-85 644.5,-82 644.5,-82 644.5,-76 644.5,-76 644.5,-73 647.5,-70 650.5,-70 650.5,-70 801.5,-70 801.5,-70 804.5,-70 807.5,-73 807.5,-76 807.5,-76 807.5,-82 807.5,-82 807.5,-85 804.5,-88 801.5,-88"/>
<text text-anchor="start" x="652.5" y="-76.8" font-family="Helvetica,sans-Serif" font-size="9.00">output&#45;added&#45;signal&#45;payload.tsx</text>
</a>
</g>
</g>
<!-- packages/base/src/signals/signal&#45;manager.ts&#45;&gt;packages/base/src/signals/output&#45;added&#45;signal&#45;payload.tsx -->
<g id="edge4" class="edge">
<title>packages/base/src/signals/signal&#45;manager.ts&#45;&gt;packages/base/src/signals/output&#45;added&#45;signal&#45;payload.tsx</title>
<path fill="none" stroke="#000000" stroke-width="2" stroke-opacity="0.200000" d="M553.52,-79C578.3,-79 609.4,-79 638.28,-79"/>
<polygon fill="#000000" fill-opacity="0.200000" stroke="#000000" stroke-width="2" stroke-opacity="0.200000" points="638.41,-81.1 644.41,-79 638.41,-76.9 638.41,-81.1"/>
</g>
<!-- packages/base/src/signals/time&#45;range&#45;data&#45;signal&#45;payloads.tsx -->
<g id="node9" class="node">
<title>packages/base/src/signals/time&#45;range&#45;data&#45;signal&#45;payloads.tsx</title>
<g id="a_node9"><a xlink:href="packages/base/src/signals/time-range-data-signal-payloads.tsx" xlink:title="time&#45;range&#45;data&#45;signal&#45;payloads.tsx">
<path fill="#bbfeff" stroke="black" d="M809,-118C809,-118 643,-118 643,-118 640,-118 637,-115 637,-112 637,-112 637,-106 637,-106 637,-103 640,-100 643,-100 643,-100 809,-100 809,-100 812,-100 815,-103 815,-106 815,-106 815,-112 815,-112 815,-115 812,-118 809,-118"/>
<text text-anchor="start" x="645" y="-106.8" font-family="Helvetica,sans-Serif" font-size="9.00">time&#45;range&#45;data&#45;signal&#45;payloads.tsx</text>
</a>
</g>
</g>
<!-- packages/base/src/signals/signal&#45;manager.ts&#45;&gt;packages/base/src/signals/time&#45;range&#45;data&#45;signal&#45;payloads.tsx -->
<g id="edge5" class="edge">
<title>packages/base/src/signals/signal&#45;manager.ts&#45;&gt;packages/base/src/signals/time&#45;range&#45;data&#45;signal&#45;payloads.tsx</title>
<path fill="none" stroke="#000000" stroke-width="2" stroke-opacity="0.200000" d="M553.52,-85.51C582.65,-89.5 620.51,-94.69 653.25,-99.17"/>
<polygon fill="#000000" fill-opacity="0.200000" stroke="#000000" stroke-width="2" stroke-opacity="0.200000" points="653.07,-101.27 659.3,-100 653.64,-97.1 653.07,-101.27"/>
</g>
<!-- packages/base/src/trace&#45;manager.ts&#45;&gt;packages/base/src/signals/signal&#45;manager.ts -->
<g id="edge7" class="edge">
<title>packages/base/src/trace&#45;manager.ts&#45;&gt;packages/base/src/signals/signal&#45;manager.ts</title>
<path fill="none" stroke="#000000" stroke-width="2" stroke-opacity="0.200000" d="M384.24,-80.44C404.67,-80.2 428.83,-79.91 450.07,-79.65"/>
<polygon fill="#000000" fill-opacity="0.200000" stroke="#000000" stroke-width="2" stroke-opacity="0.200000" points="450.3,-81.75 456.27,-79.58 450.25,-77.55 450.3,-81.75"/>
</g>
<!-- packages/base/src/lazy&#45;tsp&#45;client.ts -->
<g id="node4" class="node">
<title>packages/base/src/lazy&#45;tsp&#45;client.ts</title>
<g id="a_node4"><a xlink:href="packages/base/src/lazy-tsp-client.ts" xlink:title="no&#45;orphans">
<path fill="#ccffcc" stroke="orange" d="M126,-142C126,-142 48,-142 48,-142 45,-142 42,-139 42,-136 42,-136 42,-130 42,-130 42,-127 45,-124 48,-124 48,-124 126,-124 126,-124 129,-124 132,-127 132,-130 132,-130 132,-136 132,-136 132,-139 129,-142 126,-142"/>
<text text-anchor="start" x="50" y="-130.8" font-family="Helvetica,sans-Serif" font-size="9.00" fill="orange">lazy&#45;tsp&#45;client.ts</text>
</a>
</g>
</g>
<!-- packages/base/src/message&#45;manager.ts -->
<g id="node5" class="node">
<title>packages/base/src/message&#45;manager.ts</title>
<g id="a_node5"><a xlink:href="packages/base/src/message-manager.ts" xlink:title="no&#45;orphans">
<path fill="#ccffcc" stroke="orange" d="M136,-108C136,-108 38,-108 38,-108 35,-108 32,-105 32,-102 32,-102 32,-96 32,-96 32,-93 35,-90 38,-90 38,-90 136,-90 136,-90 139,-90 142,-93 142,-96 142,-96 142,-102 142,-102 142,-105 139,-108 136,-108"/>
<text text-anchor="start" x="40" y="-96.8" font-family="Helvetica,sans-Serif" font-size="9.00" fill="orange">message&#45;manager.ts</text>
</a>
</g>
</g>
<!-- packages/base/src/signals/available&#45;views&#45;changed&#45;signal&#45;payload.tsx -->
<g id="node6" class="node">
<title>packages/base/src/signals/available&#45;views&#45;changed&#45;signal&#45;payload.tsx</title>
<g id="a_node6"><a xlink:href="packages/base/src/signals/available-views-changed-signal-payload.tsx" xlink:title="no&#45;orphans">
<path fill="#ccffcc" stroke="orange" d="M604,-58C604,-58 406,-58 406,-58 403,-58 400,-55 400,-52 400,-52 400,-46 400,-46 400,-43 403,-40 406,-40 406,-40 604,-40 604,-40 607,-40 610,-43 610,-46 610,-46 610,-52 610,-52 610,-55 607,-58 604,-58"/>
<text text-anchor="start" x="408" y="-46.8" font-family="Helvetica,sans-Serif" font-size="9.00" fill="orange">available&#45;views&#45;changed&#45;signal&#45;payload.tsx</text>
</a>
</g>
</g>
<!-- packages/base/src/utils/time&#45;range.ts -->
<g id="node10" class="node">
<title>packages/base/src/utils/time&#45;range.ts</title>
<g id="a_node10"><a xlink:href="packages/base/src/utils/time-range.ts" xlink:title="time&#45;range.ts">
<path fill="#ddfeff" stroke="black" d="M959.5,-118C959.5,-118 894.5,-118 894.5,-118 891.5,-118 888.5,-115 888.5,-112 888.5,-112 888.5,-106 888.5,-106 888.5,-103 891.5,-100 894.5,-100 894.5,-100 959.5,-100 959.5,-100 962.5,-100 965.5,-103 965.5,-106 965.5,-106 965.5,-112 965.5,-112 965.5,-115 962.5,-118 959.5,-118"/>
<text text-anchor="start" x="896.5" y="-106.8" font-family="Helvetica,sans-Serif" font-size="9.00">time&#45;range.ts</text>
</a>
</g>
</g>
<!-- packages/base/src/signals/time&#45;range&#45;data&#45;signal&#45;payloads.tsx&#45;&gt;packages/base/src/utils/time&#45;range.ts -->
<g id="edge6" class="edge">
<title>packages/base/src/signals/time&#45;range&#45;data&#45;signal&#45;payloads.tsx&#45;&gt;packages/base/src/utils/time&#45;range.ts</title>
<path fill="none" stroke="#000000" stroke-width="2" stroke-opacity="0.200000" d="M815.15,-109C838.32,-109 862.33,-109 882.05,-109"/>
<polygon fill="#000000" fill-opacity="0.200000" stroke="#000000" stroke-width="2" stroke-opacity="0.200000" points="882.29,-111.1 888.29,-109 882.29,-106.9 882.29,-111.1"/>
</g>
<!-- packages/base/src/tsp&#45;client&#45;provider.ts -->
<g id="node11" class="node">
<title>packages/base/src/tsp&#45;client&#45;provider.ts</title>
<g id="a_node11"><a xlink:href="packages/base/src/tsp-client-provider.ts" xlink:title="tsp&#45;client&#45;provider.ts">
<path fill="#ddfeff" stroke="black" d="M136,-69C136,-69 38,-69 38,-69 35,-69 32,-66 32,-63 32,-63 32,-57 32,-57 32,-54 35,-51 38,-51 38,-51 136,-51 136,-51 139,-51 142,-54 142,-57 142,-57 142,-63 142,-63 142,-66 139,-69 136,-69"/>
<text text-anchor="start" x="40" y="-57.8" font-family="Helvetica,sans-Serif" font-size="9.00">tsp&#45;client&#45;provider.ts</text>
</a>
</g>
</g>
<!-- packages/base/src/tsp&#45;client&#45;provider.ts&#45;&gt;packages/base/src/experiment&#45;manager.ts -->
<g id="edge8" class="edge">
<title>packages/base/src/tsp&#45;client&#45;provider.ts&#45;&gt;packages/base/src/experiment&#45;manager.ts</title>
<path fill="none" stroke="#000000" stroke-width="2" stroke-opacity="0.200000" d="M142.23,-59.57C144.32,-59.56 146.42,-59.54 148.53,-59.52"/>
<polygon fill="#000000" fill-opacity="0.200000" stroke="#000000" stroke-width="2" stroke-opacity="0.200000" points="148.87,-61.62 154.86,-59.47 148.84,-57.42 148.87,-61.62"/>
</g>
<!-- packages/base/src/tsp&#45;client&#45;provider.ts&#45;&gt;packages/base/src/trace&#45;manager.ts -->
<g id="edge9" class="edge">
<title>packages/base/src/tsp&#45;client&#45;provider.ts&#45;&gt;packages/base/src/trace&#45;manager.ts</title>
<path fill="none" stroke="#000000" stroke-width="2" stroke-opacity="0.200000" d="M125.73,-69.04C135.23,-70.99 145.45,-72.83 155,-74 198.08,-79.3 247.32,-80.92 283.55,-81.28"/>
<polygon fill="#000000" fill-opacity="0.200000" stroke="#000000" stroke-width="2" stroke-opacity="0.200000" points="283.69,-83.39 289.7,-81.34 283.72,-79.19 283.69,-83.39"/>
</g>
<!-- packages/base/src/utils/convert&#45;color&#45;string&#45;to&#45;hex.ts -->
<g id="node12" class="node">
<title>packages/base/src/utils/convert&#45;color&#45;string&#45;to&#45;hex.ts</title>
<g id="a_node12"><a xlink:href="packages/base/src/utils/convert-color-string-to-hex.ts" xlink:title="no&#45;orphans">
<path fill="#ccffcc" stroke="orange" d="M995,-88C995,-88 859,-88 859,-88 856,-88 853,-85 853,-82 853,-82 853,-76 853,-76 853,-73 856,-70 859,-70 859,-70 995,-70 995,-70 998,-70 1001,-73 1001,-76 1001,-76 1001,-82 1001,-82 1001,-85 998,-88 995,-88"/>
<text text-anchor="start" x="861" y="-76.8" font-family="Helvetica,sans-Serif" font-size="9.00" fill="orange">convert&#45;color&#45;string&#45;to&#45;hex.ts</text>
</a>
</g>
</g>
<!-- packages/base/src/utils/value&#45;hash.ts -->
<g id="node13" class="node">
<title>packages/base/src/utils/value&#45;hash.ts</title>
<g id="a_node13"><a xlink:href="packages/base/src/utils/value-hash.ts" xlink:title="no&#45;orphans">
<path fill="#ccffcc" stroke="orange" d="M959.5,-58C959.5,-58 894.5,-58 894.5,-58 891.5,-58 888.5,-55 888.5,-52 888.5,-52 888.5,-46 888.5,-46 888.5,-43 891.5,-40 894.5,-40 894.5,-40 959.5,-40 959.5,-40 962.5,-40 965.5,-43 965.5,-46 965.5,-46 965.5,-52 965.5,-52 965.5,-55 962.5,-58 959.5,-58"/>
<text text-anchor="start" x="896.5" y="-46.8" font-family="Helvetica,sans-Serif" font-size="9.00" fill="orange">value&#45;hash.ts</text>
</a>
</g>
</g>
</g>
</svg>
