<?xml version="1.0" encoding="UTF-8" standalone="no"?>
<!DOCTYPE svg PUBLIC "-//W3C//DTD SVG 1.1//EN"
 "http://www.w3.org/Graphics/SVG/1.1/DTD/svg11.dtd">
<!-- Generated by graphviz version 2.43.0 (0)
 -->
<!-- Title: dependency&#45;cruiser output Pages: 1 -->
<svg width="337pt" height="994pt"
 viewBox="0.00 0.00 337.47 994.00" xmlns="http://www.w3.org/2000/svg" xmlns:xlink="http://www.w3.org/1999/xlink">
<g id="graph0" class="graph" transform="scale(1 1) rotate(0) translate(4 990)">
<title>dependency&#45;cruiser output</title>
<polygon fill="white" stroke="transparent" points="-4,4 -4,-990 333.47,-990 333.47,4 -4,4"/>
<g id="clust1" class="cluster">
<title>cluster_node_modules</title>
<path fill="#ffffff" stroke="black" stroke-width="2" d="M156.47,-86C156.47,-86 255.47,-86 255.47,-86 261.47,-86 267.47,-92 267.47,-98 267.47,-98 267.47,-906 267.47,-906 267.47,-912 261.47,-918 255.47,-918 255.47,-918 156.47,-918 156.47,-918 150.47,-918 144.47,-912 144.47,-906 144.47,-906 144.47,-98 144.47,-98 144.47,-92 150.47,-86 156.47,-86"/>
<text text-anchor="middle" x="205.97" y="-906.8" font-family="Helvetica,sans-Serif" font-weight="bold" font-size="9.00">node_modules</text>
</g>
<g id="clust2" class="cluster">
<title>cluster_packages</title>
<path fill="#ffffff" stroke="black" stroke-width="2" d="M36.97,-926C36.97,-926 228.97,-926 228.97,-926 234.97,-926 240.97,-932 240.97,-938 240.97,-938 240.97,-966 240.97,-966 240.97,-972 234.97,-978 228.97,-978 228.97,-978 36.97,-978 36.97,-978 30.97,-978 24.97,-972 24.97,-966 24.97,-966 24.97,-938 24.97,-938 24.97,-932 30.97,-926 36.97,-926"/>
<text text-anchor="middle" x="132.97" y="-966.8" font-family="Helvetica,sans-Serif" font-weight="bold" font-size="9.00">packages</text>
</g>
<g id="clust3" class="cluster">
<title>cluster_theia&#45;extensions</title>
<path fill="#ffffff" stroke="black" stroke-width="2" d="M40.47,-191C40.47,-191 124.47,-191 124.47,-191 130.47,-191 136.47,-197 136.47,-203 136.47,-203 136.47,-231 136.47,-231 136.47,-237 130.47,-243 124.47,-243 124.47,-243 40.47,-243 40.47,-243 34.47,-243 28.47,-237 28.47,-231 28.47,-231 28.47,-203 28.47,-203 28.47,-197 34.47,-191 40.47,-191"/>
<text text-anchor="middle" x="82.47" y="-231.8" font-family="Helvetica,sans-Serif" font-weight="bold" font-size="9.00">theia&#45;extensions</text>
</g>
<!-- child_process -->
<g id="node1" class="node">
<title>child_process</title>
<g id="a_node1"><a xlink:href="https://nodejs.org/api/child_process.html" xlink:title="child_process">
<path fill="#ffffcc" stroke="grey" d="M238.47,-18C238.47,-18 173.47,-18 173.47,-18 170.47,-18 167.47,-15 167.47,-12 167.47,-12 167.47,-6 167.47,-6 167.47,-3 170.47,0 173.47,0 173.47,0 238.47,0 238.47,0 241.47,0 244.47,-3 244.47,-6 244.47,-6 244.47,-12 244.47,-12 244.47,-15 241.47,-18 238.47,-18"/>
<text text-anchor="middle" x="205.97" y="-6.8" font-family="Helvetica,sans-Serif" font-size="9.00" fill="grey">child_process</text>
</a>
</g>
</g>
<!-- events -->
<g id="node2" class="node">
<title>events</title>
<g id="a_node2"><a xlink:href="https://nodejs.org/api/events.html" xlink:title="events">
<path fill="#ffffcc" stroke="grey" d="M323.47,-952C323.47,-952 281.47,-952 281.47,-952 278.47,-952 275.47,-949 275.47,-946 275.47,-946 275.47,-940 275.47,-940 275.47,-937 278.47,-934 281.47,-934 281.47,-934 323.47,-934 323.47,-934 326.47,-934 329.47,-937 329.47,-940 329.47,-940 329.47,-946 329.47,-946 329.47,-949 326.47,-952 323.47,-952"/>
<text text-anchor="middle" x="302.47" y="-940.8" font-family="Helvetica,sans-Serif" font-size="9.00" fill="grey">events</text>
</a>
</g>
</g>
<!-- fs -->
<g id="node3" class="node">
<title>fs</title>
<g id="a_node3"><a xlink:href="https://nodejs.org/api/fs.html" xlink:title="fs">
<path fill="#ffffcc" stroke="grey" d="M226.97,-78C226.97,-78 184.97,-78 184.97,-78 181.97,-78 178.97,-75 178.97,-72 178.97,-72 178.97,-66 178.97,-66 178.97,-63 181.97,-60 184.97,-60 184.97,-60 226.97,-60 226.97,-60 229.97,-60 232.97,-63 232.97,-66 232.97,-66 232.97,-72 232.97,-72 232.97,-75 229.97,-78 226.97,-78"/>
<text text-anchor="middle" x="205.97" y="-66.8" font-family="Helvetica,sans-Serif" font-size="9.00" fill="grey">fs</text>
</a>
</g>
</g>
<!-- node_modules/@fortawesome -->
<g id="node4" class="node">
<title>node_modules/@fortawesome</title>
<g id="a_node4"><a xlink:href="https://www.npmjs.com/package/" xlink:title="@fortawesome">
<polygon fill="#c40b0a" fill-opacity="0.101961" stroke="black" points="247.47,-382 166.47,-382 164.47,-380 164.47,-364 245.47,-364 247.47,-366 247.47,-382"/>
<polyline fill="none" stroke="black" points="245.47,-380 164.47,-380 "/>
<polyline fill="none" stroke="black" points="245.47,-380 245.47,-364 "/>
<polyline fill="none" stroke="black" points="245.47,-380 247.47,-382 "/>
<text text-anchor="start" x="172.47" y="-370.8" font-family="Helvetica,sans-Serif" font-size="9.00" fill="#c40b0a">@fortawesome</text>
</a>
</g>
</g>
<!-- node_modules/@mui -->
<g id="node5" class="node">
<title>node_modules/@mui</title>
<g id="a_node5"><a xlink:href="https://www.npmjs.com/package/" xlink:title="@mui">
<polygon fill="#c40b0a" fill-opacity="0.101961" stroke="black" points="232.97,-892 180.97,-892 178.97,-890 178.97,-874 230.97,-874 232.97,-876 232.97,-892"/>
<polyline fill="none" stroke="black" points="230.97,-890 178.97,-890 "/>
<polyline fill="none" stroke="black" points="230.97,-890 230.97,-874 "/>
<polyline fill="none" stroke="black" points="230.97,-890 232.97,-892 "/>
<text text-anchor="start" x="192.47" y="-880.8" font-family="Helvetica,sans-Serif" font-size="9.00" fill="#c40b0a">@mui</text>
</a>
</g>
</g>
<!-- node_modules/@testing&#45;library -->
<g id="node6" class="node">
<title>node_modules/@testing&#45;library</title>
<g id="a_node6"><a xlink:href="https://www.npmjs.com/package/" xlink:title="@testing&#45;library">
<polygon fill="#c40b0a" fill-opacity="0.101961" stroke="black" points="250.47,-862 163.47,-862 161.47,-860 161.47,-844 248.47,-844 250.47,-846 250.47,-862"/>
<polyline fill="none" stroke="black" points="248.47,-860 161.47,-860 "/>
<polyline fill="none" stroke="black" points="248.47,-860 248.47,-844 "/>
<polyline fill="none" stroke="black" points="248.47,-860 250.47,-862 "/>
<text text-anchor="start" x="169.47" y="-850.8" font-family="Helvetica,sans-Serif" font-size="9.00" fill="#c40b0a">@testing&#45;library</text>
</a>
</g>
</g>
<!-- node_modules/@theia -->
<g id="node7" class="node">
<title>node_modules/@theia</title>
<g id="a_node7"><a xlink:href="https://www.npmjs.com/package/" xlink:title="@theia">
<polygon fill="#c40b0a" fill-opacity="0.101961" stroke="black" points="232.97,-112 180.97,-112 178.97,-110 178.97,-94 230.97,-94 232.97,-96 232.97,-112"/>
<polyline fill="none" stroke="black" points="230.97,-110 178.97,-110 "/>
<polyline fill="none" stroke="black" points="230.97,-110 230.97,-94 "/>
<polyline fill="none" stroke="black" points="230.97,-110 232.97,-112 "/>
<text text-anchor="start" x="189.97" y="-100.8" font-family="Helvetica,sans-Serif" font-size="9.00" fill="#c40b0a">@theia</text>
</a>
</g>
</g>
<!-- node_modules/ag&#45;grid&#45;community -->
<g id="node8" class="node">
<title>node_modules/ag&#45;grid&#45;community</title>
<g id="a_node8"><a xlink:href="https://www.npmjs.com/package/ag-grid-community" xlink:title="ag&#45;grid&#45;community">
<polygon fill="#c40b0a" fill-opacity="0.101961" stroke="black" points="257.97,-352 155.97,-352 153.97,-350 153.97,-334 255.97,-334 257.97,-336 257.97,-352"/>
<polyline fill="none" stroke="black" points="255.97,-350 153.97,-350 "/>
<polyline fill="none" stroke="black" points="255.97,-350 255.97,-334 "/>
<polyline fill="none" stroke="black" points="255.97,-350 257.97,-352 "/>
<text text-anchor="start" x="161.97" y="-340.8" font-family="Helvetica,sans-Serif" font-size="9.00" fill="#c40b0a">ag&#45;grid&#45;community</text>
</a>
</g>
</g>
<!-- node_modules/ag&#45;grid&#45;react -->
<g id="node9" class="node">
<title>node_modules/ag&#45;grid&#45;react</title>
<g id="a_node9"><a xlink:href="https://www.npmjs.com/package/ag-grid-react" xlink:title="ag&#45;grid&#45;react">
<polygon fill="#c40b0a" fill-opacity="0.101961" stroke="black" points="243.47,-832 170.47,-832 168.47,-830 168.47,-814 241.47,-814 243.47,-816 243.47,-832"/>
<polyline fill="none" stroke="black" points="241.47,-830 168.47,-830 "/>
<polyline fill="none" stroke="black" points="241.47,-830 241.47,-814 "/>
<polyline fill="none" stroke="black" points="241.47,-830 243.47,-832 "/>
<text text-anchor="start" x="176.47" y="-820.8" font-family="Helvetica,sans-Serif" font-size="9.00" fill="#c40b0a">ag&#45;grid&#45;react</text>
</a>
</g>
</g>
<!-- node_modules/animate.css -->
<g id="node10" class="node">
<title>node_modules/animate.css</title>
<g id="a_node10"><a xlink:href="https://www.npmjs.com/package/animate.css" xlink:title="animate.css">
<polygon fill="#c40b0a" fill-opacity="0.101961" stroke="black" points="241.47,-172 172.47,-172 170.47,-170 170.47,-154 239.47,-154 241.47,-156 241.47,-172"/>
<polyline fill="none" stroke="black" points="239.47,-170 170.47,-170 "/>
<polyline fill="none" stroke="black" points="239.47,-170 239.47,-154 "/>
<polyline fill="none" stroke="black" points="239.47,-170 241.47,-172 "/>
<text text-anchor="start" x="178.47" y="-160.8" font-family="Helvetica,sans-Serif" font-size="9.00" fill="#c40b0a">animate.css</text>
</a>
</g>
</g>
<!-- node_modules/chart.js -->
<g id="node11" class="node">
<title>node_modules/chart.js</title>
<g id="a_node11"><a xlink:href="https://www.npmjs.com/package/chart.js" xlink:title="chart.js">
<polygon fill="#c40b0a" fill-opacity="0.101961" stroke="black" points="232.97,-802 180.97,-802 178.97,-800 178.97,-784 230.97,-784 232.97,-786 232.97,-802"/>
<polyline fill="none" stroke="black" points="230.97,-800 178.97,-800 "/>
<polyline fill="none" stroke="black" points="230.97,-800 230.97,-784 "/>
<polyline fill="none" stroke="black" points="230.97,-800 232.97,-802 "/>
<text text-anchor="start" x="188.97" y="-790.8" font-family="Helvetica,sans-Serif" font-size="9.00" fill="#c40b0a">chart.js</text>
</a>
</g>
</g>
<!-- node_modules/d3&#45;axis -->
<g id="node12" class="node">
<title>node_modules/d3&#45;axis</title>
<g id="a_node12"><a xlink:href="https://www.npmjs.com/package/d3-axis" xlink:title="d3&#45;axis">
<polygon fill="#c40b0a" fill-opacity="0.101961" stroke="black" points="232.97,-772 180.97,-772 178.97,-770 178.97,-754 230.97,-754 232.97,-756 232.97,-772"/>
<polyline fill="none" stroke="black" points="230.97,-770 178.97,-770 "/>
<polyline fill="none" stroke="black" points="230.97,-770 230.97,-754 "/>
<polyline fill="none" stroke="black" points="230.97,-770 232.97,-772 "/>
<text text-anchor="start" x="189.47" y="-760.8" font-family="Helvetica,sans-Serif" font-size="9.00" fill="#c40b0a">d3&#45;axis</text>
</a>
</g>
</g>
<!-- node_modules/d3&#45;scale -->
<g id="node13" class="node">
<title>node_modules/d3&#45;scale</title>
<g id="a_node13"><a xlink:href="https://www.npmjs.com/package/d3-scale" xlink:title="d3&#45;scale">
<polygon fill="#c40b0a" fill-opacity="0.101961" stroke="black" points="232.97,-742 180.97,-742 178.97,-740 178.97,-724 230.97,-724 232.97,-726 232.97,-742"/>
<polyline fill="none" stroke="black" points="230.97,-740 178.97,-740 "/>
<polyline fill="none" stroke="black" points="230.97,-740 230.97,-724 "/>
<polyline fill="none" stroke="black" points="230.97,-740 232.97,-742 "/>
<text text-anchor="start" x="186.97" y="-730.8" font-family="Helvetica,sans-Serif" font-size="9.00" fill="#c40b0a">d3&#45;scale</text>
</a>
</g>
</g>
<!-- node_modules/d3&#45;selection -->
<g id="node14" class="node">
<title>node_modules/d3&#45;selection</title>
<g id="a_node14"><a xlink:href="https://www.npmjs.com/package/d3-selection" xlink:title="d3&#45;selection">
<polygon fill="#c40b0a" fill-opacity="0.101961" stroke="black" points="241.47,-712 172.47,-712 170.47,-710 170.47,-694 239.47,-694 241.47,-696 241.47,-712"/>
<polyline fill="none" stroke="black" points="239.47,-710 170.47,-710 "/>
<polyline fill="none" stroke="black" points="239.47,-710 239.47,-694 "/>
<polyline fill="none" stroke="black" points="239.47,-710 241.47,-712 "/>
<text text-anchor="start" x="178.47" y="-700.8" font-family="Helvetica,sans-Serif" font-size="9.00" fill="#c40b0a">d3&#45;selection</text>
</a>
</g>
</g>
<!-- node_modules/inversify -->
<g id="node15" class="node">
<title>node_modules/inversify</title>
<g id="a_node15"><a xlink:href="https://www.npmjs.com/package/inversify" xlink:title="inversify">
<polygon fill="#c40b0a" fill-opacity="0.101961" stroke="black" points="232.97,-232 180.97,-232 178.97,-230 178.97,-214 230.97,-214 232.97,-216 232.97,-232"/>
<polyline fill="none" stroke="black" points="230.97,-230 178.97,-230 "/>
<polyline fill="none" stroke="black" points="230.97,-230 230.97,-214 "/>
<polyline fill="none" stroke="black" points="230.97,-230 232.97,-232 "/>
<text text-anchor="start" x="186.97" y="-220.8" font-family="Helvetica,sans-Serif" font-size="9.00" fill="#c40b0a">inversify</text>
</a>
</g>
</g>
<!-- node_modules/lodash -->
<g id="node16" class="node">
<title>node_modules/lodash</title>
<g id="a_node16"><a xlink:href="https://www.npmjs.com/package/lodash" xlink:title="lodash">
<polygon fill="#c40b0a" fill-opacity="0.101961" stroke="black" points="232.97,-682 180.97,-682 178.97,-680 178.97,-664 230.97,-664 232.97,-666 232.97,-682"/>
<polyline fill="none" stroke="black" points="230.97,-680 178.97,-680 "/>
<polyline fill="none" stroke="black" points="230.97,-680 230.97,-664 "/>
<polyline fill="none" stroke="black" points="230.97,-680 232.97,-682 "/>
<text text-anchor="start" x="190.97" y="-670.8" font-family="Helvetica,sans-Serif" font-size="9.00" fill="#c40b0a">lodash</text>
</a>
</g>
</g>
<!-- node_modules/lodash.debounce -->
<g id="node17" class="node">
<title>node_modules/lodash.debounce</title>
<g id="a_node17"><a xlink:href="https://www.npmjs.com/package/lodash.debounce" xlink:title="lodash.debounce">
<polygon fill="#c40b0a" fill-opacity="0.101961" stroke="black" points="252.97,-652 160.97,-652 158.97,-650 158.97,-634 250.97,-634 252.97,-636 252.97,-652"/>
<polyline fill="none" stroke="black" points="250.97,-650 158.97,-650 "/>
<polyline fill="none" stroke="black" points="250.97,-650 250.97,-634 "/>
<polyline fill="none" stroke="black" points="250.97,-650 252.97,-652 "/>
<text text-anchor="start" x="166.97" y="-640.8" font-family="Helvetica,sans-Serif" font-size="9.00" fill="#c40b0a">lodash.debounce</text>
</a>
</g>
</g>
<!-- node_modules/react -->
<g id="node18" class="node">
<title>node_modules/react</title>
<g id="a_node18"><a xlink:href="https://www.npmjs.com/package/react" xlink:title="react">
<polygon fill="#c40b0a" fill-opacity="0.101961" stroke="black" points="232.97,-292 180.97,-292 178.97,-290 178.97,-274 230.97,-274 232.97,-276 232.97,-292"/>
<polyline fill="none" stroke="black" points="230.97,-290 178.97,-290 "/>
<polyline fill="none" stroke="black" points="230.97,-290 230.97,-274 "/>
<polyline fill="none" stroke="black" points="230.97,-290 232.97,-292 "/>
<text text-anchor="start" x="193.97" y="-280.8" font-family="Helvetica,sans-Serif" font-size="9.00" fill="#c40b0a">react</text>
</a>
</g>
</g>
<!-- node_modules/react&#45;chartjs&#45;2 -->
<g id="node19" class="node">
<title>node_modules/react&#45;chartjs&#45;2</title>
<g id="a_node19"><a xlink:href="https://www.npmjs.com/package/react-chartjs-2" xlink:title="react&#45;chartjs&#45;2">
<polygon fill="#c40b0a" fill-opacity="0.101961" stroke="black" points="247.47,-622 166.47,-622 164.47,-620 164.47,-604 245.47,-604 247.47,-606 247.47,-622"/>
<polyline fill="none" stroke="black" points="245.47,-620 164.47,-620 "/>
<polyline fill="none" stroke="black" points="245.47,-620 245.47,-604 "/>
<polyline fill="none" stroke="black" points="245.47,-620 247.47,-622 "/>
<text text-anchor="start" x="172.47" y="-610.8" font-family="Helvetica,sans-Serif" font-size="9.00" fill="#c40b0a">react&#45;chartjs&#45;2</text>
</a>
</g>
</g>
<!-- node_modules/react&#45;contexify -->
<g id="node20" class="node">
<title>node_modules/react&#45;contexify</title>
<g id="a_node20"><a xlink:href="https://www.npmjs.com/package/react-contexify" xlink:title="react&#45;contexify">
<polygon fill="#c40b0a" fill-opacity="0.101961" stroke="black" points="247.97,-592 165.97,-592 163.97,-590 163.97,-574 245.97,-574 247.97,-576 247.97,-592"/>
<polyline fill="none" stroke="black" points="245.97,-590 163.97,-590 "/>
<polyline fill="none" stroke="black" points="245.97,-590 245.97,-574 "/>
<polyline fill="none" stroke="black" points="245.97,-590 247.97,-592 "/>
<text text-anchor="start" x="171.97" y="-580.8" font-family="Helvetica,sans-Serif" font-size="9.00" fill="#c40b0a">react&#45;contexify</text>
</a>
</g>
</g>
<!-- node_modules/react&#45;dom -->
<g id="node21" class="node">
<title>node_modules/react&#45;dom</title>
<g id="a_node21"><a xlink:href="https://www.npmjs.com/package/react-dom" xlink:title="react&#45;dom">
<polygon fill="#c40b0a" fill-opacity="0.101961" stroke="black" points="237.47,-562 176.47,-562 174.47,-560 174.47,-544 235.47,-544 237.47,-546 237.47,-562"/>
<polyline fill="none" stroke="black" points="235.47,-560 174.47,-560 "/>
<polyline fill="none" stroke="black" points="235.47,-560 235.47,-544 "/>
<polyline fill="none" stroke="black" points="235.47,-560 237.47,-562 "/>
<text text-anchor="start" x="182.47" y="-550.8" font-family="Helvetica,sans-Serif" font-size="9.00" fill="#c40b0a">react&#45;dom</text>
</a>
</g>
</g>
<!-- node_modules/react&#45;grid&#45;layout -->
<g id="node22" class="node">
<title>node_modules/react&#45;grid&#45;layout</title>
<g id="a_node22"><a xlink:href="https://www.npmjs.com/package/react-grid-layout" xlink:title="react&#45;grid&#45;layout">
<polygon fill="#c40b0a" fill-opacity="0.101961" stroke="black" points="251.97,-322 161.97,-322 159.97,-320 159.97,-304 249.97,-304 251.97,-306 251.97,-322"/>
<polyline fill="none" stroke="black" points="249.97,-320 159.97,-320 "/>
<polyline fill="none" stroke="black" points="249.97,-320 249.97,-304 "/>
<polyline fill="none" stroke="black" points="249.97,-320 251.97,-322 "/>
<text text-anchor="start" x="167.97" y="-310.8" font-family="Helvetica,sans-Serif" font-size="9.00" fill="#c40b0a">react&#45;grid&#45;layout</text>
</a>
</g>
</g>
<!-- node_modules/react&#45;modal -->
<g id="node23" class="node">
<title>node_modules/react&#45;modal</title>
<g id="a_node23"><a xlink:href="https://www.npmjs.com/package/react-modal" xlink:title="react&#45;modal">
<polygon fill="#c40b0a" fill-opacity="0.101961" stroke="black" points="241.47,-532 172.47,-532 170.47,-530 170.47,-514 239.47,-514 241.47,-516 241.47,-532"/>
<polyline fill="none" stroke="black" points="239.47,-530 170.47,-530 "/>
<polyline fill="none" stroke="black" points="239.47,-530 239.47,-514 "/>
<polyline fill="none" stroke="black" points="239.47,-530 241.47,-532 "/>
<text text-anchor="start" x="178.47" y="-520.8" font-family="Helvetica,sans-Serif" font-size="9.00" fill="#c40b0a">react&#45;modal</text>
</a>
</g>
</g>
<!-- node_modules/react&#45;resizable -->
<g id="node24" class="node">
<title>node_modules/react&#45;resizable</title>
<g id="a_node24"><a xlink:href="https://www.npmjs.com/package/react-resizable" xlink:title="react&#45;resizable">
<polygon fill="#c40b0a" fill-opacity="0.101961" stroke="black" points="246.97,-202 166.97,-202 164.97,-200 164.97,-184 244.97,-184 246.97,-186 246.97,-202"/>
<polyline fill="none" stroke="black" points="244.97,-200 164.97,-200 "/>
<polyline fill="none" stroke="black" points="244.97,-200 244.97,-184 "/>
<polyline fill="none" stroke="black" points="244.97,-200 246.97,-202 "/>
<text text-anchor="start" x="172.97" y="-190.8" font-family="Helvetica,sans-Serif" font-size="9.00" fill="#c40b0a">react&#45;resizable</text>
</a>
</g>
</g>
<!-- node_modules/react&#45;test&#45;renderer -->
<g id="node25" class="node">
<title>node_modules/react&#45;test&#45;renderer</title>
<g id="a_node25"><a xlink:href="https://www.npmjs.com/package/react-test-renderer" xlink:title="react&#45;test&#45;renderer">
<polygon fill="#c40b0a" fill-opacity="0.101961" stroke="black" points="256.97,-502 156.97,-502 154.97,-500 154.97,-484 254.97,-484 256.97,-486 256.97,-502"/>
<polyline fill="none" stroke="black" points="254.97,-500 154.97,-500 "/>
<polyline fill="none" stroke="black" points="254.97,-500 254.97,-484 "/>
<polyline fill="none" stroke="black" points="254.97,-500 256.97,-502 "/>
<text text-anchor="start" x="162.97" y="-490.8" font-family="Helvetica,sans-Serif" font-size="9.00" fill="#c40b0a">react&#45;test&#45;renderer</text>
</a>
</g>
</g>
<!-- node_modules/react&#45;tooltip -->
<g id="node26" class="node">
<title>node_modules/react&#45;tooltip</title>
<g id="a_node26"><a xlink:href="https://www.npmjs.com/package/react-tooltip" xlink:title="react&#45;tooltip">
<polygon fill="#c40b0a" fill-opacity="0.101961" stroke="black" points="241.47,-472 172.47,-472 170.47,-470 170.47,-454 239.47,-454 241.47,-456 241.47,-472"/>
<polyline fill="none" stroke="black" points="239.47,-470 170.47,-470 "/>
<polyline fill="none" stroke="black" points="239.47,-470 239.47,-454 "/>
<polyline fill="none" stroke="black" points="239.47,-470 241.47,-472 "/>
<text text-anchor="start" x="178.47" y="-460.8" font-family="Helvetica,sans-Serif" font-size="9.00" fill="#c40b0a">react&#45;tooltip</text>
</a>
</g>
</g>
<!-- node_modules/react&#45;virtualized -->
<g id="node27" class="node">
<title>node_modules/react&#45;virtualized</title>
<g id="a_node27"><a xlink:href="https://www.npmjs.com/package/react-virtualized" xlink:title="react&#45;virtualized">
<polygon fill="#c40b0a" fill-opacity="0.101961" stroke="black" points="250.47,-442 163.47,-442 161.47,-440 161.47,-424 248.47,-424 250.47,-426 250.47,-442"/>
<polyline fill="none" stroke="black" points="248.47,-440 161.47,-440 "/>
<polyline fill="none" stroke="black" points="248.47,-440 248.47,-424 "/>
<polyline fill="none" stroke="black" points="248.47,-440 250.47,-442 "/>
<text text-anchor="start" x="169.47" y="-430.8" font-family="Helvetica,sans-Serif" font-size="9.00" fill="#c40b0a">react&#45;virtualized</text>
</a>
</g>
</g>
<!-- node_modules/timeline&#45;chart -->
<g id="node28" class="node">
<title>node_modules/timeline&#45;chart</title>
<g id="a_node28"><a xlink:href="https://www.npmjs.com/package/timeline-chart" xlink:title="timeline&#45;chart">
<polygon fill="#c40b0a" fill-opacity="0.101961" stroke="black" points="245.97,-412 167.97,-412 165.97,-410 165.97,-394 243.97,-394 245.97,-396 245.97,-412"/>
<polyline fill="none" stroke="black" points="243.97,-410 165.97,-410 "/>
<polyline fill="none" stroke="black" points="243.97,-410 243.97,-394 "/>
<polyline fill="none" stroke="black" points="243.97,-410 245.97,-412 "/>
<text text-anchor="start" x="173.97" y="-400.8" font-family="Helvetica,sans-Serif" font-size="9.00" fill="#c40b0a">timeline&#45;chart</text>
</a>
</g>
</g>
<!-- node_modules/tree&#45;kill -->
<g id="node29" class="node">
<title>node_modules/tree&#45;kill</title>
<g id="a_node29"><a xlink:href="https://www.npmjs.com/package/tree-kill" xlink:title="tree&#45;kill">
<polygon fill="#c40b0a" fill-opacity="0.101961" stroke="black" points="232.97,-142 180.97,-142 178.97,-140 178.97,-124 230.97,-124 232.97,-126 232.97,-142"/>
<polyline fill="none" stroke="black" points="230.97,-140 178.97,-140 "/>
<polyline fill="none" stroke="black" points="230.97,-140 230.97,-124 "/>
<polyline fill="none" stroke="black" points="230.97,-140 232.97,-142 "/>
<text text-anchor="start" x="188.97" y="-130.8" font-family="Helvetica,sans-Serif" font-size="9.00" fill="#c40b0a">tree&#45;kill</text>
</a>
</g>
</g>
<!-- node_modules/tsp&#45;typescript&#45;client -->
<g id="node30" class="node">
<title>node_modules/tsp&#45;typescript&#45;client</title>
<g id="a_node30"><a xlink:href="https://www.npmjs.com/package/tsp-typescript-client" xlink:title="tsp&#45;typescript&#45;client">
<polygon fill="#c40b0a" fill-opacity="0.101961" stroke="black" points="259.47,-262 154.47,-262 152.47,-260 152.47,-244 257.47,-244 259.47,-246 259.47,-262"/>
<polyline fill="none" stroke="black" points="257.47,-260 152.47,-260 "/>
<polyline fill="none" stroke="black" points="257.47,-260 257.47,-244 "/>
<polyline fill="none" stroke="black" points="257.47,-260 259.47,-262 "/>
<text text-anchor="start" x="160.47" y="-250.8" font-family="Helvetica,sans-Serif" font-size="9.00" fill="#c40b0a">tsp&#45;typescript&#45;client</text>
</a>
</g>
</g>
<!-- packages/base/ -->
<g id="node31" class="node">
<title>packages/base/</title>
<g id="a_node31"><a xlink:href="packages/base/" xlink:title="no&#45;orphans">
<polygon fill="#ffffcc" stroke="orange" points="232.97,-952 180.97,-952 178.97,-950 178.97,-934 230.97,-934 232.97,-936 232.97,-952"/>
<polyline fill="none" stroke="orange" points="230.97,-950 178.97,-950 "/>
<polyline fill="none" stroke="orange" points="230.97,-950 230.97,-934 "/>
<polyline fill="none" stroke="orange" points="230.97,-950 232.97,-952 "/>
<text text-anchor="start" x="194.97" y="-940.8" font-family="Helvetica,sans-Serif" font-size="9.00" fill="orange">base</text>
</a>
</g>
</g>
<!-- packages/base/&#45;&gt;events -->
<g id="edge2" class="edge">
<title>packages/base/&#45;&gt;events</title>
<path fill="none" stroke="#000000" stroke-dasharray="5,2" stroke-opacity="0.200000" d="M233.04,-943C244.21,-943 257.36,-943 269.14,-943"/>
<polygon fill="#000000" fill-opacity="0.200000" stroke="#000000" stroke-opacity="0.200000" points="269.15,-945.1 275.15,-943 269.15,-940.9 269.15,-945.1"/>
</g>
<!-- packages/base/&#45;&gt;node_modules/tsp&#45;typescript&#45;client -->
<g id="edge1" class="edge">
<title>packages/base/&#45;&gt;node_modules/tsp&#45;typescript&#45;client</title>
<path fill="none" stroke="#000000" stroke-opacity="0.200000" d="M178.79,-940.79C162.99,-937.79 145.27,-930.86 140.47,-915 135.31,-897.96 135.31,-291.04 140.47,-274 141.76,-269.72 144.08,-266.25 147.09,-263.43"/>
<polygon fill="#000000" fill-opacity="0.200000" stroke="#000000" stroke-opacity="0.200000" points="148.78,-264.79 152.34,-259.53 146.27,-261.42 148.78,-264.79"/>
</g>
<!-- packages/react&#45;components/ -->
<g id="node32" class="node">
<title>packages/react&#45;components/</title>
<g id="a_node32"><a xlink:href="packages/react-components/" xlink:title="react&#45;components">
<polygon fill="#ffffcc" stroke="black" points="131.97,-952 34.97,-952 32.97,-950 32.97,-934 129.97,-934 131.97,-936 131.97,-952"/>
<polyline fill="none" stroke="black" points="129.97,-950 32.97,-950 "/>
<polyline fill="none" stroke="black" points="129.97,-950 129.97,-934 "/>
<polyline fill="none" stroke="black" points="129.97,-950 131.97,-952 "/>
<text text-anchor="start" x="40.97" y="-940.8" font-family="Helvetica,sans-Serif" font-size="9.00">react&#45;components</text>
</a>
</g>
</g>
<!-- packages/react&#45;components/&#45;&gt;node_modules/@fortawesome -->
<g id="edge10" class="edge">
<title>packages/react&#45;components/&#45;&gt;node_modules/@fortawesome</title>
<path fill="none" stroke="#000000" stroke-opacity="0.200000" d="M83.86,-933.72C86.83,-864.55 106.9,-430.96 144.47,-388 148.29,-383.63 153.16,-380.44 158.48,-378.11"/>
<polygon fill="#000000" fill-opacity="0.200000" stroke="#000000" stroke-opacity="0.200000" points="159.5,-379.98 164.39,-375.92 158.04,-376.04 159.5,-379.98"/>
</g>
<!-- packages/react&#45;components/&#45;&gt;node_modules/@mui -->
<g id="edge23" class="edge">
<title>packages/react&#45;components/&#45;&gt;node_modules/@mui</title>
<path fill="none" stroke="#000000" stroke-opacity="0.200000" d="M101.92,-933.89C123.1,-923.43 157.88,-906.25 181.1,-894.79"/>
<polygon fill="#000000" fill-opacity="0.200000" stroke="#000000" stroke-opacity="0.200000" points="182.29,-896.54 186.74,-892 180.43,-892.78 182.29,-896.54"/>
</g>
<!-- packages/react&#45;components/&#45;&gt;node_modules/@testing&#45;library -->
<g id="edge3" class="edge">
<title>packages/react&#45;components/&#45;&gt;node_modules/@testing&#45;library</title>
<g id="a_edge3"><a xlink:title="not&#45;to&#45;dev&#45;dep">
<path fill="none" stroke="red" d="M88.31,-933.77C97.2,-917.78 117.69,-885 144.47,-868 147.91,-865.82 151.64,-863.95 155.51,-862.36"/>
<polygon fill="red" stroke="red" points="156.37,-864.28 161.26,-860.21 154.9,-860.35 156.37,-864.28"/>
</a>
</g>
<text text-anchor="middle" x="84.03" y="-884.01" font-family="Helvetica,sans-Serif" font-size="9.00" fill="red">not&#45;to&#45;dev&#45;dep</text>
</g>
<!-- packages/react&#45;components/&#45;&gt;node_modules/ag&#45;grid&#45;community -->
<g id="edge4" class="edge">
<title>packages/react&#45;components/&#45;&gt;node_modules/ag&#45;grid&#45;community</title>
<path fill="none" stroke="#000000" stroke-opacity="0.200000" d="M83.8,-933.68C86.45,-862.27 104.93,-403.46 144.47,-358 145.82,-356.45 147.3,-355.04 148.89,-353.78"/>
<polygon fill="#000000" fill-opacity="0.200000" stroke="#000000" stroke-opacity="0.200000" points="150.15,-355.46 153.94,-350.36 147.8,-351.98 150.15,-355.46"/>
</g>
<!-- packages/react&#45;components/&#45;&gt;node_modules/ag&#45;grid&#45;react -->
<g id="edge12" class="edge">
<title>packages/react&#45;components/&#45;&gt;node_modules/ag&#45;grid&#45;react</title>
<path fill="none" stroke="#000000" stroke-opacity="0.200000" d="M86.11,-933.76C92.48,-913.16 110.74,-863.31 144.47,-838 149.77,-834.02 156,-831.09 162.41,-828.93"/>
<polygon fill="#000000" fill-opacity="0.200000" stroke="#000000" stroke-opacity="0.200000" points="163.18,-830.89 168.32,-827.15 161.97,-826.87 163.18,-830.89"/>
</g>
<!-- packages/react&#45;components/&#45;&gt;node_modules/chart.js -->
<g id="edge17" class="edge">
<title>packages/react&#45;components/&#45;&gt;node_modules/chart.js</title>
<path fill="none" stroke="#000000" stroke-opacity="0.200000" d="M84.82,-933.8C88.93,-909.31 103.57,-842.08 144.47,-808 152.39,-801.4 162.79,-797.64 172.72,-795.51"/>
<polygon fill="#000000" fill-opacity="0.200000" stroke="#000000" stroke-opacity="0.200000" points="173.31,-797.54 178.83,-794.39 172.55,-793.41 173.31,-797.54"/>
</g>
<!-- packages/react&#45;components/&#45;&gt;node_modules/d3&#45;axis -->
<g id="edge18" class="edge">
<title>packages/react&#45;components/&#45;&gt;node_modules/d3&#45;axis</title>
<g id="a_edge18"><a xlink:title="no&#45;non&#45;package&#45;json">
<path fill="none" stroke="red" d="M83.98,-933.88C86.05,-906 96.22,-821.17 144.47,-778 152.22,-771.07 162.67,-767.23 172.7,-765.13"/>
<polygon fill="red" stroke="red" points="173.33,-767.15 178.87,-764.04 172.6,-763.02 173.33,-767.15"/>
</a>
</g>
<text text-anchor="middle" x="57.45" y="-831.03" font-family="Helvetica,sans-Serif" font-size="9.00" fill="red">no&#45;non&#45;package&#45;json</text>
</g>
<!-- packages/react&#45;components/&#45;&gt;node_modules/d3&#45;scale -->
<g id="edge19" class="edge">
<title>packages/react&#45;components/&#45;&gt;node_modules/d3&#45;scale</title>
<g id="a_edge19"><a xlink:title="no&#45;non&#45;package&#45;json">
<path fill="none" stroke="red" d="M83.39,-933.62C83.66,-902.29 88.95,-800.28 144.47,-748 152.04,-740.87 162.45,-736.98 172.5,-734.9"/>
<polygon fill="red" stroke="red" points="173.13,-736.93 178.68,-733.83 172.41,-732.79 173.13,-736.93"/>
</a>
</g>
<text text-anchor="middle" x="52.48" y="-816.8" font-family="Helvetica,sans-Serif" font-size="9.00" fill="red">no&#45;non&#45;package&#45;json</text>
</g>
<!-- packages/react&#45;components/&#45;&gt;node_modules/d3&#45;selection -->
<g id="edge20" class="edge">
<title>packages/react&#45;components/&#45;&gt;node_modules/d3&#45;selection</title>
<g id="a_edge20"><a xlink:title="no&#45;non&#45;package&#45;json">
<path fill="none" stroke="red" d="M82.93,-933.68C81.51,-899.48 81.41,-779.71 144.47,-718 149.91,-712.68 156.92,-709.15 164.24,-706.83"/>
<polygon fill="red" stroke="red" points="165.18,-708.75 170.43,-705.15 164.08,-704.69 165.18,-708.75"/>
</a>
</g>
<text text-anchor="middle" x="47.5" y="-804.13" font-family="Helvetica,sans-Serif" font-size="9.00" fill="red">no&#45;non&#45;package&#45;json</text>
</g>
<!-- packages/react&#45;components/&#45;&gt;node_modules/lodash -->
<g id="edge13" class="edge">
<title>packages/react&#45;components/&#45;&gt;node_modules/lodash</title>
<path fill="none" stroke="#000000" stroke-opacity="0.200000" d="M84.41,-933.74C88.79,-892.28 108.57,-724.2 144.47,-688 151.92,-680.49 162.51,-676.52 172.75,-674.5"/>
<polygon fill="#000000" fill-opacity="0.200000" stroke="#000000" stroke-opacity="0.200000" points="173.14,-676.56 178.72,-673.51 172.45,-672.42 173.14,-676.56"/>
</g>
<!-- packages/react&#45;components/&#45;&gt;node_modules/lodash.debounce -->
<g id="edge15" class="edge">
<title>packages/react&#45;components/&#45;&gt;node_modules/lodash.debounce</title>
<g id="a_edge15"><a xlink:title="no&#45;non&#45;package&#45;json">
<path fill="none" stroke="red" d="M84.15,-933.87C87.61,-889.74 104.69,-699.08 144.47,-658 146.96,-655.42 149.82,-653.26 152.92,-651.46"/>
<polygon fill="red" stroke="red" points="154.27,-653.13 158.7,-648.56 152.4,-649.37 154.27,-653.13"/>
</a>
</g>
<text text-anchor="middle" x="54.34" y="-780.76" font-family="Helvetica,sans-Serif" font-size="9.00" fill="red">no&#45;non&#45;package&#45;json</text>
</g>
<!-- packages/react&#45;components/&#45;&gt;node_modules/react -->
<g id="edge5" class="edge">
<title>packages/react&#45;components/&#45;&gt;node_modules/react</title>
<path fill="none" stroke="#000000" stroke-opacity="0.200000" d="M83.71,-933.7C85.73,-858.31 100.98,-348.5 144.47,-298 151.49,-289.84 162.2,-285.76 172.65,-283.82"/>
<polygon fill="#000000" fill-opacity="0.200000" stroke="#000000" stroke-opacity="0.200000" points="173.13,-285.87 178.75,-282.91 172.51,-281.72 173.13,-285.87"/>
</g>
<!-- packages/react&#45;components/&#45;&gt;node_modules/react&#45;chartjs&#45;2 -->
<g id="edge21" class="edge">
<title>packages/react&#45;components/&#45;&gt;node_modules/react&#45;chartjs&#45;2</title>
<path fill="none" stroke="#000000" stroke-opacity="0.200000" d="M83.95,-933.87C86.58,-887 100.84,-673.95 144.47,-628 148.41,-623.85 153.3,-620.78 158.59,-618.51"/>
<polygon fill="#000000" fill-opacity="0.200000" stroke="#000000" stroke-opacity="0.200000" points="159.54,-620.39 164.45,-616.35 158.09,-616.45 159.54,-620.39"/>
</g>
<!-- packages/react&#45;components/&#45;&gt;node_modules/react&#45;contexify -->
<g id="edge22" class="edge">
<title>packages/react&#45;components/&#45;&gt;node_modules/react&#45;contexify</title>
<path fill="none" stroke="#000000" stroke-opacity="0.200000" d="M83.78,-933.99C85.63,-884.8 96.93,-648.89 144.47,-598 148.27,-593.93 152.98,-590.9 158.08,-588.64"/>
<polygon fill="#000000" fill-opacity="0.200000" stroke="#000000" stroke-opacity="0.200000" points="158.89,-590.58 163.76,-586.48 157.4,-586.65 158.89,-590.58"/>
</g>
<!-- packages/react&#45;components/&#45;&gt;node_modules/react&#45;dom -->
<g id="edge14" class="edge">
<title>packages/react&#45;components/&#45;&gt;node_modules/react&#45;dom</title>
<path fill="none" stroke="#000000" stroke-opacity="0.200000" d="M83.64,-933.91C84.79,-882.03 93.07,-623.78 144.47,-568 150.73,-561.21 159.53,-557.28 168.49,-555.06"/>
<polygon fill="#000000" fill-opacity="0.200000" stroke="#000000" stroke-opacity="0.200000" points="168.93,-557.11 174.38,-553.83 168.07,-553 168.93,-557.11"/>
</g>
<!-- packages/react&#45;components/&#45;&gt;node_modules/react&#45;grid&#45;layout -->
<g id="edge24" class="edge">
<title>packages/react&#45;components/&#45;&gt;node_modules/react&#45;grid&#45;layout</title>
<path fill="none" stroke="#000000" stroke-opacity="0.200000" d="M83.75,-933.67C86.08,-860.19 102.96,-375.97 144.47,-328 147.23,-324.81 150.55,-322.25 154.2,-320.19"/>
<polygon fill="#000000" fill-opacity="0.200000" stroke="#000000" stroke-opacity="0.200000" points="155.25,-322.01 159.75,-317.52 153.43,-318.23 155.25,-322.01"/>
</g>
<!-- packages/react&#45;components/&#45;&gt;node_modules/react&#45;modal -->
<g id="edge16" class="edge">
<title>packages/react&#45;components/&#45;&gt;node_modules/react&#45;modal</title>
<path fill="none" stroke="#000000" stroke-opacity="0.200000" d="M83.52,-933.9C84,-879.62 89.18,-598.72 144.47,-538 149.75,-532.2 156.9,-528.48 164.42,-526.13"/>
<polygon fill="#000000" fill-opacity="0.200000" stroke="#000000" stroke-opacity="0.200000" points="164.97,-528.16 170.23,-524.59 163.89,-524.1 164.97,-528.16"/>
</g>
<!-- packages/react&#45;components/&#45;&gt;node_modules/react&#45;test&#45;renderer -->
<g id="edge6" class="edge">
<title>packages/react&#45;components/&#45;&gt;node_modules/react&#45;test&#45;renderer</title>
<g id="a_edge6"><a xlink:title="not&#45;to&#45;dev&#45;dep">
<path fill="none" stroke="red" d="M83.42,-933.98C83.27,-877.58 85.24,-573.71 144.47,-508 146.05,-506.25 147.79,-504.69 149.67,-503.3"/>
<polygon fill="red" stroke="red" points="150.96,-504.97 154.91,-500 148.72,-501.42 150.96,-504.97"/>
</a>
</g>
<text text-anchor="middle" x="58.59" y="-707.12" font-family="Helvetica,sans-Serif" font-size="9.00" fill="red">not&#45;to&#45;dev&#45;dep</text>
</g>
<!-- packages/react&#45;components/&#45;&gt;node_modules/react&#45;tooltip -->
<g id="edge11" class="edge">
<title>packages/react&#45;components/&#45;&gt;node_modules/react&#45;tooltip</title>
<path fill="none" stroke="#000000" stroke-opacity="0.200000" d="M83.32,-933.75C82.58,-874.51 81.41,-548.59 144.47,-478 149.75,-472.08 156.97,-468.33 164.59,-465.97"/>
<polygon fill="#000000" fill-opacity="0.200000" stroke="#000000" stroke-opacity="0.200000" points="165.19,-467.99 170.46,-464.44 164.12,-463.93 165.19,-467.99"/>
</g>
<!-- packages/react&#45;components/&#45;&gt;node_modules/react&#45;virtualized -->
<g id="edge25" class="edge">
<title>packages/react&#45;components/&#45;&gt;node_modules/react&#45;virtualized</title>
<path fill="none" stroke="#000000" stroke-opacity="0.200000" d="M83.25,-933.95C81.93,-873.11 77.42,-523.65 144.47,-448 147.65,-444.41 151.54,-441.62 155.8,-439.45"/>
<polygon fill="#000000" fill-opacity="0.200000" stroke="#000000" stroke-opacity="0.200000" points="156.71,-441.34 161.37,-437.02 155.03,-437.49 156.71,-441.34"/>
</g>
<!-- packages/react&#45;components/&#45;&gt;node_modules/timeline&#45;chart -->
<g id="edge7" class="edge">
<title>packages/react&#45;components/&#45;&gt;node_modules/timeline&#45;chart</title>
<path fill="none" stroke="#000000" stroke-opacity="0.200000" d="M83.91,-933.8C87.22,-867.04 108.85,-458.47 144.47,-418 148.6,-413.31 153.94,-409.97 159.75,-407.61"/>
<polygon fill="#000000" fill-opacity="0.200000" stroke="#000000" stroke-opacity="0.200000" points="160.68,-409.51 165.67,-405.57 159.31,-405.54 160.68,-409.51"/>
</g>
<!-- packages/react&#45;components/&#45;&gt;node_modules/tsp&#45;typescript&#45;client -->
<g id="edge9" class="edge">
<title>packages/react&#45;components/&#45;&gt;node_modules/tsp&#45;typescript&#45;client</title>
<path fill="none" stroke="#000000" stroke-opacity="0.200000" d="M83.67,-933.77C85.39,-856.63 98.99,-321.03 144.47,-268 145.31,-267.01 146.21,-266.09 147.16,-265.22"/>
<polygon fill="#000000" fill-opacity="0.200000" stroke="#000000" stroke-opacity="0.200000" points="148.76,-266.64 152.25,-261.32 146.21,-263.3 148.76,-266.64"/>
</g>
<!-- packages/react&#45;components/&#45;&gt;packages/base/ -->
<g id="edge8" class="edge">
<title>packages/react&#45;components/&#45;&gt;packages/base/</title>
<path fill="none" stroke="#000000" stroke-width="2" stroke-opacity="0.200000" d="M132.19,-943C145.79,-943 160.24,-943 172.64,-943"/>
<polygon fill="#000000" fill-opacity="0.200000" stroke="#000000" stroke-width="2" stroke-opacity="0.200000" points="172.93,-945.1 178.93,-943 172.93,-940.9 172.93,-945.1"/>
</g>
<!-- path -->
<g id="node33" class="node">
<title>path</title>
<g id="a_node33"><a xlink:href="https://nodejs.org/api/path.html" xlink:title="path">
<path fill="#ffffcc" stroke="grey" d="M226.97,-48C226.97,-48 184.97,-48 184.97,-48 181.97,-48 178.97,-45 178.97,-42 178.97,-42 178.97,-36 178.97,-36 178.97,-33 181.97,-30 184.97,-30 184.97,-30 226.97,-30 226.97,-30 229.97,-30 232.97,-33 232.97,-36 232.97,-36 232.97,-42 232.97,-42 232.97,-45 229.97,-48 226.97,-48"/>
<text text-anchor="middle" x="205.97" y="-36.8" font-family="Helvetica,sans-Serif" font-size="9.00" fill="grey">path</text>
</a>
</g>
</g>
<!-- theia&#45;extensions/viewer&#45;prototype/ -->
<g id="node34" class="node">
<title>theia&#45;extensions/viewer&#45;prototype/</title>
<g id="a_node34"><a xlink:href="theia-extensions/viewer-prototype/" xlink:title="viewer&#45;prototype">
<polygon fill="#ffffcc" stroke="black" points="128.47,-217 38.47,-217 36.47,-215 36.47,-199 126.47,-199 128.47,-201 128.47,-217"/>
<polyline fill="none" stroke="black" points="126.47,-215 36.47,-215 "/>
<polyline fill="none" stroke="black" points="126.47,-215 126.47,-199 "/>
<polyline fill="none" stroke="black" points="126.47,-215 128.47,-217 "/>
<text text-anchor="start" x="44.47" y="-205.8" font-family="Helvetica,sans-Serif" font-size="9.00">viewer&#45;prototype</text>
</a>
</g>
</g>
<!-- theia&#45;extensions/viewer&#45;prototype/&#45;&gt;child_process -->
<g id="edge37" class="edge">
<title>theia&#45;extensions/viewer&#45;prototype/&#45;&gt;child_process</title>
<path fill="none" stroke="#000000" stroke-dasharray="5,2" stroke-opacity="0.200000" d="M83.59,-198.72C84.5,-168.63 91.62,-72.93 144.47,-24 149.27,-19.55 155.18,-16.37 161.41,-14.1"/>
<polygon fill="#000000" fill-opacity="0.200000" stroke="#000000" stroke-opacity="0.200000" points="162.11,-16.08 167.19,-12.27 160.84,-12.08 162.11,-16.08"/>
</g>
<!-- theia&#45;extensions/viewer&#45;prototype/&#45;&gt;fs -->
<g id="edge38" class="edge">
<title>theia&#45;extensions/viewer&#45;prototype/&#45;&gt;fs</title>
<path fill="none" stroke="#000000" stroke-dasharray="5,2" stroke-opacity="0.200000" d="M85.16,-198.76C89.92,-175.44 105.73,-113.82 144.47,-83 152.5,-76.61 162.93,-73.03 172.86,-71.07"/>
<polygon fill="#000000" fill-opacity="0.200000" stroke="#000000" stroke-opacity="0.200000" points="173.39,-73.11 178.96,-70.04 172.69,-68.97 173.39,-73.11"/>
</g>
<!-- theia&#45;extensions/viewer&#45;prototype/&#45;&gt;node_modules/@theia -->
<g id="edge26" class="edge">
<title>theia&#45;extensions/viewer&#45;prototype/&#45;&gt;node_modules/@theia</title>
<path fill="none" stroke="#000000" stroke-opacity="0.200000" d="M86.95,-198.97C94.49,-180.68 114.13,-139.17 144.47,-118 152.77,-112.21 163.09,-108.64 172.84,-106.46"/>
<polygon fill="#000000" fill-opacity="0.200000" stroke="#000000" stroke-opacity="0.200000" points="173.34,-108.5 178.81,-105.26 172.52,-104.38 173.34,-108.5"/>
</g>
<!-- theia&#45;extensions/viewer&#45;prototype/&#45;&gt;node_modules/ag&#45;grid&#45;community -->
<g id="edge33" class="edge">
<title>theia&#45;extensions/viewer&#45;prototype/&#45;&gt;node_modules/ag&#45;grid&#45;community</title>
<g id="a_edge33"><a xlink:title="no&#45;non&#45;package&#45;json">
<path fill="none" stroke="red" d="M85.38,-217.17C90.57,-239.74 107.15,-298.33 144.47,-328 145.73,-329 147.05,-329.94 148.41,-330.81"/>
<polygon fill="red" stroke="red" points="147.63,-332.78 153.88,-333.89 149.68,-329.12 147.63,-332.78"/>
</a>
</g>
<text text-anchor="middle" x="60.87" y="-274.18" font-family="Helvetica,sans-Serif" font-size="9.00" fill="red">no&#45;non&#45;package&#45;json</text>
</g>
<!-- theia&#45;extensions/viewer&#45;prototype/&#45;&gt;node_modules/animate.css -->
<g id="edge32" class="edge">
<title>theia&#45;extensions/viewer&#45;prototype/&#45;&gt;node_modules/animate.css</title>
<path fill="none" stroke="#000000" stroke-opacity="0.200000" d="M99.62,-198.87C111.68,-192.35 128.73,-183.75 144.47,-178 150.77,-175.7 157.57,-173.63 164.26,-171.82"/>
<polygon fill="#000000" fill-opacity="0.200000" stroke="#000000" stroke-opacity="0.200000" points="165.08,-173.78 170.35,-170.23 164.01,-169.71 165.08,-173.78"/>
</g>
<!-- theia&#45;extensions/viewer&#45;prototype/&#45;&gt;node_modules/inversify -->
<g id="edge27" class="edge">
<title>theia&#45;extensions/viewer&#45;prototype/&#45;&gt;node_modules/inversify</title>
<g id="a_edge27"><a xlink:title="no&#45;non&#45;package&#45;json">
<path fill="none" stroke="red" d="M128.71,-213.59C143.34,-215.39 159.25,-217.36 172.74,-219.02"/>
<polygon fill="red" stroke="red" points="172.54,-221.11 178.75,-219.76 173.05,-216.94 172.54,-221.11"/>
</a>
</g>
<text text-anchor="middle" x="106.11" y="-219.46" font-family="Helvetica,sans-Serif" font-size="9.00" fill="red">no&#45;non&#45;package&#45;json</text>
</g>
<!-- theia&#45;extensions/viewer&#45;prototype/&#45;&gt;node_modules/react -->
<g id="edge30" class="edge">
<title>theia&#45;extensions/viewer&#45;prototype/&#45;&gt;node_modules/react</title>
<path fill="none" stroke="#000000" stroke-opacity="0.200000" d="M90.24,-217.27C100.46,-230.59 121.13,-254.94 144.47,-268 153.07,-272.81 163.2,-276.1 172.7,-278.33"/>
<polygon fill="#000000" fill-opacity="0.200000" stroke="#000000" stroke-opacity="0.200000" points="172.51,-280.44 178.82,-279.66 173.4,-276.34 172.51,-280.44"/>
</g>
<!-- theia&#45;extensions/viewer&#45;prototype/&#45;&gt;node_modules/react&#45;grid&#45;layout -->
<g id="edge34" class="edge">
<title>theia&#45;extensions/viewer&#45;prototype/&#45;&gt;node_modules/react&#45;grid&#45;layout</title>
<g id="a_edge34"><a xlink:title="no&#45;non&#45;package&#45;json">
<path fill="none" stroke="red" d="M86.95,-217.03C94.49,-235.32 114.13,-276.83 144.47,-298 147.35,-300.01 150.48,-301.76 153.74,-303.26"/>
<polygon fill="red" stroke="red" points="153.39,-305.39 159.74,-305.74 154.99,-301.51 153.39,-305.39"/>
</a>
</g>
<text text-anchor="middle" x="67.16" y="-260.35" font-family="Helvetica,sans-Serif" font-size="9.00" fill="red">no&#45;non&#45;package&#45;json</text>
</g>
<!-- theia&#45;extensions/viewer&#45;prototype/&#45;&gt;node_modules/react&#45;resizable -->
<g id="edge35" class="edge">
<title>theia&#45;extensions/viewer&#45;prototype/&#45;&gt;node_modules/react&#45;resizable</title>
<g id="a_edge35"><a xlink:title="no&#45;non&#45;package&#45;json">
<path fill="none" stroke="red" d="M128.71,-202.41C138.55,-201.2 148.96,-199.91 158.83,-198.7"/>
<polygon fill="red" stroke="red" points="159.19,-200.77 164.89,-197.95 158.68,-196.6 159.19,-200.77"/>
</a>
</g>
<text text-anchor="middle" x="99.11" y="-193.01" font-family="Helvetica,sans-Serif" font-size="9.00" fill="red">no&#45;non&#45;package&#45;json</text>
</g>
<!-- theia&#45;extensions/viewer&#45;prototype/&#45;&gt;node_modules/tree&#45;kill -->
<g id="edge39" class="edge">
<title>theia&#45;extensions/viewer&#45;prototype/&#45;&gt;node_modules/tree&#45;kill</title>
<path fill="none" stroke="#000000" stroke-opacity="0.200000" d="M90.24,-198.73C100.46,-185.41 121.13,-161.06 144.47,-148 153.07,-143.19 163.2,-139.9 172.7,-137.67"/>
<polygon fill="#000000" fill-opacity="0.200000" stroke="#000000" stroke-opacity="0.200000" points="173.4,-139.66 178.82,-136.34 172.51,-135.56 173.4,-139.66"/>
</g>
<!-- theia&#45;extensions/viewer&#45;prototype/&#45;&gt;node_modules/tsp&#45;typescript&#45;client -->
<g id="edge29" class="edge">
<title>theia&#45;extensions/viewer&#45;prototype/&#45;&gt;node_modules/tsp&#45;typescript&#45;client</title>
<g id="a_edge29"><a xlink:title="no&#45;non&#45;package&#45;json">
<path fill="none" stroke="red" d="M99.62,-217.13C111.68,-223.65 128.73,-232.25 144.47,-238 148.59,-239.51 152.93,-240.91 157.31,-242.21"/>
<polygon fill="red" stroke="red" points="156.94,-244.29 163.28,-243.91 158.09,-240.25 156.94,-244.29"/>
</a>
</g>
<text text-anchor="middle" x="178.14" y="-235.22" font-family="Helvetica,sans-Serif" font-size="9.00" fill="red">no&#45;non&#45;package&#45;json</text>
</g>
<!-- theia&#45;extensions/viewer&#45;prototype/&#45;&gt;packages/base/ -->
<g id="edge28" class="edge">
<title>theia&#45;extensions/viewer&#45;prototype/&#45;&gt;packages/base/</title>
<path fill="none" stroke="#000000" stroke-width="2" stroke-opacity="0.200000" d="M83.67,-217.21C85.42,-296.49 99.52,-862.32 144.47,-921 151.35,-929.98 162.25,-935.3 172.92,-938.45"/>
<polygon fill="#000000" fill-opacity="0.200000" stroke="#000000" stroke-width="2" stroke-opacity="0.200000" points="172.46,-940.5 178.79,-939.98 173.52,-936.44 172.46,-940.5"/>
</g>
<!-- theia&#45;extensions/viewer&#45;prototype/&#45;&gt;packages/react&#45;components/ -->
<g id="edge31" class="edge">
<title>theia&#45;extensions/viewer&#45;prototype/&#45;&gt;packages/react&#45;components/</title>
<path fill="none" stroke="#000000" stroke-width="2" stroke-opacity="0.200000" d="M82.47,-217.33C82.47,-454.05 82.47,-690.77 82.47,-927.49"/>
<polygon fill="#000000" fill-opacity="0.200000" stroke="#000000" stroke-width="2" stroke-opacity="0.200000" points="80.37,-927.79 82.47,-933.79 84.57,-927.79 80.37,-927.79"/>
</g>
<!-- theia&#45;extensions/viewer&#45;prototype/&#45;&gt;path -->
<g id="edge36" class="edge">
<title>theia&#45;extensions/viewer&#45;prototype/&#45;&gt;path</title>
<path fill="none" stroke="#000000" stroke-dasharray="5,2" stroke-opacity="0.200000" d="M84.27,-198.72C87.08,-171.91 99,-93.74 144.47,-54 152.3,-47.16 162.77,-43.34 172.8,-41.24"/>
<polygon fill="#000000" fill-opacity="0.200000" stroke="#000000" stroke-opacity="0.200000" points="173.42,-43.26 178.96,-40.14 172.68,-39.13 173.42,-43.26"/>
</g>
</g>
</svg>
